# xmcd
#
# Track frame offsets: 
#        150
#        23953
#        38048
#        50341
#        64398
#        79163
#        92608
#        113771
#        129488
#        148835
#        158680
#        176437
#        193728
#        215619
#        231145
#        256178
#
# Disc length: 3744 seconds
#
# Revision: 1
# Processed by: cddbd v1.5.1PL0 Copyright (c) Steve Scherf et al.
# Submitted via: ExactAudioCopy v0.95a3
#
DISCID=db0e9e10
DTITLE=Various Artist - Swampbuck Sessions Live
DYEAR=2005
DGENRE=Blues
TTITLE0=Ryder - You May Be Right
TTITLE1=The Harlocks - White Women and Wine
TTITLE2=The Detonators - Skiny Skinny Skinny
TTITLE3=CW Stoneking - Cabbage Greens
TTITLE4=Jimi Hocking - Keep My Collar Up
TTITLE5=Jaimi Faulkner Band - Before I Get Home
TTITLE6=The Longrass - Shape I'm In
TTITLE7=Stu Thomas - Grinding Teeth
TTITLE8=Git - Pick Up Truck
TTITLE9=Gatorbait - Tell My Baby I Love Her
TTITLE10=Sime Nugent - Gentle As She Goes
TTITLE11=Diddley Daddies - Dance Lesson
TTITLE12=Lloyd Spiegel - The Blues Had A Baby
TTITLE13=Fiona Boyes - The Preacher and The Yellow Haired Gal
TTITLE14=Those Bloody McKennas - Grace Emily Jam
TTITLE15=Chris Winterton Quartet - Crazy
EXTD=YEAR: 2005
EXTT0=
EXTT1=
EXTT2=
EXTT3=
EXTT4=
EXTT5=
EXTT6=
EXTT7=
EXTT8=
EXTT9=
EXTT10=
EXTT11=
EXTT12=
EXTT13=
EXTT14=
EXTT15=
PLAYORDER=
